# xmcd
#
# Track frame offsets: 
#        150
#        13746
#        27162
#        39213
#        55471
#        70406
#        89652
#        104679
#        125297
#        140721
#        152239
#        169543
#        179898
#        190384
#        209204
#        226896
#        240843
#        251780
#
# Disc length: 3560 seconds
#
# Revision: 6
# Processed by: cddbd v1.5.2PL0 Copyright (c) Steve Scherf et al.
# Submitted via: ExactAudioCopyFreeDBPlugin 1.0
#
DISCID=0c0de612
DTITLE=Various Artist - Put It On The Line
DYEAR=2005
DGENRE=Hip-Hop
TTITLE0=Ghostface Killah and Trife Da God - Cocaine Trafficking
TTITLE1=Trife Da God - Put It On The Line
TTITLE2=Ghostface Killah - Struggle
TTITLE3=Trife Da God - Hustle Hard
TTITLE4=Trife Da God - Event
TTITLE5=Trife Da God and Tommy Whispers - Gangsta Shit
TTITLE6=Ghostface Killah and Trife Da God - Fire
TTITLE7=Trife Da God, Krymelife and Tommy Whispers - Project Soap Operas
TTITLE8=Trife Da God - War
TTITLE9=Ghostface Killah and Shawn Wigs - Out Da Way
TTITLE10=Trife Da God - Drugz
TTITLE11=Ghostface Killah and Trife Da God - Milk 'em
TTITLE12=Ghostface Killah, Trife Da God and Shawn Wigs - Late Night Arri
TTITLE12=val
TTITLE13=Ghostface Killah, Trife Da God and Sun God - Man Up
TTITLE14=Trife Da God and Tommy Whispers - Game Time
TTITLE15=Ghostface Killah and Raekwon - The Watch (Bonus Track)
TTITLE16=Ghostface Killah and Kool G Rap - Ghost And Giancana (Bonus Tra
TTITLE16=ck)
TTITLE17=Ghostface Killah, Raekwon, Slick Rick and Rza - The Sun (Bonus 
TTITLE17=Track)
EXTD=
EXTT0=
EXTT1=
EXTT2=
EXTT3=
EXTT4=
EXTT5=
EXTT6=
EXTT7=
EXTT8=
EXTT9=
EXTT10=
EXTT11=
EXTT12=
EXTT13=
EXTT14=
EXTT15=
EXTT16=
EXTT17=
PLAYORDER=
